<?xml version="1.0" encoding="utf-8"?>
<!-- Generator: Adobe Illustrator 24.0.1, SVG Export Plug-In . SVG Version: 6.00 Build 0)  -->
<svg version="1.1" id="Capa_1" xmlns="http://www.w3.org/2000/svg" xmlns:xlink="http://www.w3.org/1999/xlink" x="0px" y="0px"
	 viewBox="0 0 765.9 169.3" style="enable-background:new 0 0 765.9 169.3;" xml:space="preserve">
<style type="text/css">
	.st0{fill:#E94259;}
	.st1{fill:#FFFFFF;}
</style>
<g>
	<path class="st0" d="M26.6,141.1l5.8-26.9H23l5.8-27H38l2.7-12.3c2-9.5,7.6-14.8,18.7-17.6c5.1-1.3,11.5-1.7,26.2-1.7
		c7.4,0,10.9,0.1,22.1,0.7l-4.5,21.1c-5.5-0.4-8.1-0.5-10.9-0.5c-10.1,0-13.3,1.4-14.4,6.6l-0.8,3.6h24l-5.8,27H71.4L65.6,141h-39
		V141.1z"/>
	<path class="st0" d="M208.7,89.2c0,14.4-5.8,29.2-15.1,38.6c-10.1,10.3-27.6,15.6-50.9,15.6c-21.4,0-36.7-4.9-42.8-13.9
		c-3.3-4.7-4.7-9.9-4.7-17.1c0-15.2,6.2-30.2,16-39.3c10.5-9.6,27.9-14.7,49.9-14.7C193,58.4,208.7,68.5,208.7,89.2 M140.9,93.5
		c-2.2,3.5-3.7,10.1-3.7,15.3c0,7.6,3.5,11.3,10.7,11.3c6.5,0,11.3-3.1,14.6-9.7c2.2-4.2,3.9-10.7,3.9-14.7
		c0-6.5-4.1-10.1-11.3-10.1C149,85.6,143.9,88.4,140.9,93.5"/>
	<path class="st0" d="M265.2,141.1L251,115.6l-5.4,25.5h-41.4l17.1-80.5h77.4c9.8,0,15.2,1.4,19.4,5.3c3.4,3,5.3,7.7,5.3,13.1
		c0,7.1-3.3,14.1-8.9,19.4c-6,5.6-12.1,8.1-21.8,9.2l20.6,33.4h-48.1V141.1z M267.1,98.8c5.9,0,8.4-0.8,11-3.6
		c1.8-2,2.9-4.9,2.9-7.8c0-3.7-2.3-5.2-7.8-5.2h-15.1l-3.6,16.6H267.1z"/>
	<polygon class="st1" points="406.4,141.1 415.2,99.7 392.3,141.1 369.8,141.1 364.1,101.1 355.6,141.1 316.6,141.1 333.7,60.6 
		385.4,60.6 389.8,99.7 410.7,60.6 463.1,60.6 446,141.1 	"/>
	<polygon class="st1" points="452.1,141.1 469.3,60.6 561.4,60.6 556,86.5 505.1,86.5 503.5,93.9 554.4,93.9 550.3,113.2 
		499.4,113.2 498,120 548.9,120 544.4,141.1 	"/>
	<polygon class="st1" points="618.6,141.1 598.1,105 590.5,141.1 551.4,141.1 568.6,60.6 609.9,60.6 625.9,94.3 633,60.6 
		672.1,60.6 654.9,141.1 	"/>
	<path class="st1" d="M730.2,51.3c-3.5,3.7-7.5,6.9-12.1,9.6c-7.7,4.4-16.4,6.8-25.1,6.8c-2.3,0-4.6-0.2-6.9-0.5
		c6.7,4.7,15.1,7.5,24.3,7.5c12.9,0,24.3-5.5,31.6-14C738.8,56.9,734.8,53.7,730.2,51.3"/>
	<path class="st0" d="M737.8,27c-4.4-1.6-9.2-2.4-14.1-2.4c-7.6,0-15.5,2-22.8,6.2c-12,6.9-19.7,18.1-21.9,30
		c4.4,1.6,9.2,2.4,14.1,2.4c7.6,0,15.5-2,22.8-6.2C727.8,50.1,735.5,38.8,737.8,27"/>
</g>
</svg>
